<mxfile host="app.diagrams.net" modified="2020-08-31T07:55:20.684Z" agent="5.0 (Macintosh; Intel Mac OS X 10_15_6) AppleWebKit/537.36 (KHTML, like Gecko) Chrome/84.0.4147.135 Safari/537.36" etag="iRz5_iN9HWJlzAJRW2I8" version="13.6.5" type="github">
  <diagram id="rpZTh0Apc3gJYlCMVfAn" name="第 1 页">
    <mxGraphModel dx="788" dy="398" grid="1" gridSize="10" guides="1" tooltips="1" connect="1" arrows="1" fold="1" page="1" pageScale="1" pageWidth="827" pageHeight="1169" math="0" shadow="0">
      <root>
        <mxCell id="0" />
        <mxCell id="1" parent="0" />
        <mxCell id="Kss5Wl3Iak-gHaVWlZTA-1" value="功能按钮：&lt;br&gt;我的站点、我的单页、我的滚页、我的表单&lt;br&gt;&lt;br&gt;备注：&lt;br&gt;我的站点：由多个单页组成的多页面；&lt;br&gt;我的单页：单页面；&lt;br&gt;我的滚页：由多个单页组成的单页面；&lt;br&gt;我的表单：单页面，带表单提交功能；" style="rounded=0;whiteSpace=wrap;html=1;align=left;spacingLeft=9;spacingRight=10;spacing=10;spacingTop=10;spacingBottom=10;" vertex="1" parent="1">
          <mxGeometry x="80" y="80" width="420" height="130" as="geometry" />
        </mxCell>
        <mxCell id="Kss5Wl3Iak-gHaVWlZTA-2" value="&lt;font style=&quot;font-size: 18px&quot;&gt;我的企业——站点管理&lt;/font&gt;" style="text;html=1;strokeColor=none;fillColor=none;align=left;verticalAlign=middle;whiteSpace=wrap;rounded=0;fontSize=24;fontStyle=0" vertex="1" parent="1">
          <mxGeometry x="80" y="30" width="280" height="20" as="geometry" />
        </mxCell>
        <mxCell id="Kss5Wl3Iak-gHaVWlZTA-4" value="根据购买的套餐版本，功能按钮有权限限制；&lt;br&gt;无权限的功能按钮，颜色有一定灰度，区分为禁用的状态" style="whiteSpace=wrap;html=1;rounded=0;align=left;spacing=10;spacingTop=10;spacingLeft=9;spacingBottom=10;spacingRight=10;" vertex="1" parent="1">
          <mxGeometry x="600" y="92.5" width="180" height="105" as="geometry" />
        </mxCell>
        <mxCell id="Kss5Wl3Iak-gHaVWlZTA-6" value="" style="endArrow=none;dashed=1;html=1;dashPattern=1 3;strokeWidth=2;fontSize=24;entryX=0;entryY=0.5;entryDx=0;entryDy=0;exitX=1;exitY=0.5;exitDx=0;exitDy=0;" edge="1" parent="1" source="Kss5Wl3Iak-gHaVWlZTA-1" target="Kss5Wl3Iak-gHaVWlZTA-4">
          <mxGeometry width="50" height="50" relative="1" as="geometry">
            <mxPoint x="510" y="340" as="sourcePoint" />
            <mxPoint x="560" y="290" as="targetPoint" />
          </mxGeometry>
        </mxCell>
        <mxCell id="Kss5Wl3Iak-gHaVWlZTA-7" value="备注" style="edgeLabel;align=center;verticalAlign=middle;resizable=0;points=[];fontSize=16;labelBackgroundColor=none;" vertex="1" connectable="0" parent="Kss5Wl3Iak-gHaVWlZTA-6">
          <mxGeometry x="-0.04" relative="1" as="geometry">
            <mxPoint as="offset" />
          </mxGeometry>
        </mxCell>
        <mxCell id="Kss5Wl3Iak-gHaVWlZTA-16" value="" style="edgeStyle=orthogonalEdgeStyle;rounded=0;orthogonalLoop=1;jettySize=auto;html=1;fontSize=16;entryX=0.5;entryY=0;entryDx=0;entryDy=0;" edge="1" parent="1" source="Kss5Wl3Iak-gHaVWlZTA-13" target="Kss5Wl3Iak-gHaVWlZTA-18">
          <mxGeometry relative="1" as="geometry">
            <mxPoint x="414" y="480" as="targetPoint" />
          </mxGeometry>
        </mxCell>
        <mxCell id="Kss5Wl3Iak-gHaVWlZTA-17" value="&lt;font style=&quot;font-size: 12px&quot;&gt;点&lt;font&gt;击“我的站点”&lt;/font&gt;&lt;/font&gt;" style="edgeLabel;html=1;align=center;verticalAlign=middle;resizable=0;points=[];fontSize=16;" vertex="1" connectable="0" parent="Kss5Wl3Iak-gHaVWlZTA-16">
          <mxGeometry x="-0.0889" y="-1" relative="1" as="geometry">
            <mxPoint as="offset" />
          </mxGeometry>
        </mxCell>
        <mxCell id="Kss5Wl3Iak-gHaVWlZTA-13" value="&lt;span style=&quot;font-size: 12px&quot;&gt;我的企业-站点管理&lt;/span&gt;" style="rounded=0;whiteSpace=wrap;html=1;labelBackgroundColor=none;fontSize=16;align=center;" vertex="1" parent="1">
          <mxGeometry x="354" y="330" width="120" height="60" as="geometry" />
        </mxCell>
        <mxCell id="Kss5Wl3Iak-gHaVWlZTA-21" value="" style="edgeStyle=orthogonalEdgeStyle;rounded=0;orthogonalLoop=1;jettySize=auto;html=1;fontSize=16;" edge="1" parent="1" source="Kss5Wl3Iak-gHaVWlZTA-18" target="Kss5Wl3Iak-gHaVWlZTA-20">
          <mxGeometry relative="1" as="geometry" />
        </mxCell>
        <mxCell id="Kss5Wl3Iak-gHaVWlZTA-18" value="&lt;font style=&quot;font-size: 12px&quot;&gt;进入“站点编辑”页面&lt;br&gt;（页面内容空白，显示loading动画）&lt;br&gt;&lt;/font&gt;" style="rounded=0;whiteSpace=wrap;html=1;labelBackgroundColor=none;fontSize=16;align=center;" vertex="1" parent="1">
          <mxGeometry x="301" y="490" width="226" height="90" as="geometry" />
        </mxCell>
        <mxCell id="Kss5Wl3Iak-gHaVWlZTA-23" value="" style="edgeStyle=orthogonalEdgeStyle;rounded=0;orthogonalLoop=1;jettySize=auto;html=1;fontSize=16;" edge="1" parent="1" source="Kss5Wl3Iak-gHaVWlZTA-20" target="Kss5Wl3Iak-gHaVWlZTA-22">
          <mxGeometry relative="1" as="geometry" />
        </mxCell>
        <mxCell id="Kss5Wl3Iak-gHaVWlZTA-24" value="&lt;font style=&quot;font-size: 12px&quot;&gt;是&lt;/font&gt;" style="edgeLabel;html=1;align=center;verticalAlign=middle;resizable=0;points=[];fontSize=16;" vertex="1" connectable="0" parent="Kss5Wl3Iak-gHaVWlZTA-23">
          <mxGeometry x="-0.037" y="2" relative="1" as="geometry">
            <mxPoint as="offset" />
          </mxGeometry>
        </mxCell>
        <mxCell id="Kss5Wl3Iak-gHaVWlZTA-31" value="" style="edgeStyle=orthogonalEdgeStyle;rounded=0;orthogonalLoop=1;jettySize=auto;html=1;fontSize=12;" edge="1" parent="1" source="Kss5Wl3Iak-gHaVWlZTA-20" target="Kss5Wl3Iak-gHaVWlZTA-30">
          <mxGeometry relative="1" as="geometry" />
        </mxCell>
        <mxCell id="Kss5Wl3Iak-gHaVWlZTA-32" value="否" style="edgeLabel;html=1;align=center;verticalAlign=middle;resizable=0;points=[];fontSize=12;" vertex="1" connectable="0" parent="Kss5Wl3Iak-gHaVWlZTA-31">
          <mxGeometry x="-0.075" y="-1" relative="1" as="geometry">
            <mxPoint as="offset" />
          </mxGeometry>
        </mxCell>
        <mxCell id="Kss5Wl3Iak-gHaVWlZTA-20" value="&lt;span style=&quot;font-size: 12px&quot;&gt;没有登录或登录超时&lt;/span&gt;" style="rhombus;whiteSpace=wrap;html=1;labelBackgroundColor=none;fontSize=16;align=center;" vertex="1" parent="1">
          <mxGeometry x="326" y="620" width="176" height="90" as="geometry" />
        </mxCell>
        <mxCell id="Kss5Wl3Iak-gHaVWlZTA-28" value="" style="edgeStyle=orthogonalEdgeStyle;rounded=0;orthogonalLoop=1;jettySize=auto;html=1;fontSize=12;" edge="1" parent="1" source="Kss5Wl3Iak-gHaVWlZTA-22" target="Kss5Wl3Iak-gHaVWlZTA-27">
          <mxGeometry relative="1" as="geometry" />
        </mxCell>
        <mxCell id="Kss5Wl3Iak-gHaVWlZTA-29" value="点击“重新登录”" style="edgeLabel;html=1;align=center;verticalAlign=middle;resizable=0;points=[];fontSize=12;" vertex="1" connectable="0" parent="Kss5Wl3Iak-gHaVWlZTA-28">
          <mxGeometry x="-0.1583" y="-3" relative="1" as="geometry">
            <mxPoint as="offset" />
          </mxGeometry>
        </mxCell>
        <mxCell id="Kss5Wl3Iak-gHaVWlZTA-22" value="关闭loading动画，出现“登录已失效，请重新登录”的弹窗提示" style="whiteSpace=wrap;html=1;fontSize=12;" vertex="1" parent="1">
          <mxGeometry x="610" y="635" width="120" height="60" as="geometry" />
        </mxCell>
        <mxCell id="Kss5Wl3Iak-gHaVWlZTA-27" value="进入“登录”页面" style="whiteSpace=wrap;html=1;" vertex="1" parent="1">
          <mxGeometry x="910" y="635" width="120" height="60" as="geometry" />
        </mxCell>
        <mxCell id="Kss5Wl3Iak-gHaVWlZTA-34" value="" style="edgeStyle=orthogonalEdgeStyle;rounded=0;orthogonalLoop=1;jettySize=auto;html=1;fontSize=12;" edge="1" parent="1" source="Kss5Wl3Iak-gHaVWlZTA-30" target="Kss5Wl3Iak-gHaVWlZTA-33">
          <mxGeometry relative="1" as="geometry" />
        </mxCell>
        <mxCell id="Kss5Wl3Iak-gHaVWlZTA-37" value="是" style="edgeLabel;html=1;align=center;verticalAlign=middle;resizable=0;points=[];fontSize=12;" vertex="1" connectable="0" parent="Kss5Wl3Iak-gHaVWlZTA-34">
          <mxGeometry x="-0.037" y="-2" relative="1" as="geometry">
            <mxPoint as="offset" />
          </mxGeometry>
        </mxCell>
        <mxCell id="Kss5Wl3Iak-gHaVWlZTA-39" value="" style="edgeStyle=orthogonalEdgeStyle;rounded=0;orthogonalLoop=1;jettySize=auto;html=1;fontSize=12;" edge="1" parent="1" source="Kss5Wl3Iak-gHaVWlZTA-30" target="Kss5Wl3Iak-gHaVWlZTA-38">
          <mxGeometry relative="1" as="geometry" />
        </mxCell>
        <mxCell id="Kss5Wl3Iak-gHaVWlZTA-40" value="否" style="edgeLabel;html=1;align=center;verticalAlign=middle;resizable=0;points=[];fontSize=12;" vertex="1" connectable="0" parent="Kss5Wl3Iak-gHaVWlZTA-39">
          <mxGeometry x="0.0947" y="-1" relative="1" as="geometry">
            <mxPoint as="offset" />
          </mxGeometry>
        </mxCell>
        <mxCell id="Kss5Wl3Iak-gHaVWlZTA-30" value="&lt;span style=&quot;font-size: 12px&quot;&gt;没有站点&lt;/span&gt;" style="rhombus;whiteSpace=wrap;html=1;labelBackgroundColor=none;fontSize=16;align=center;" vertex="1" parent="1">
          <mxGeometry x="326" y="790" width="176" height="90" as="geometry" />
        </mxCell>
        <mxCell id="Kss5Wl3Iak-gHaVWlZTA-42" value="" style="edgeStyle=orthogonalEdgeStyle;rounded=0;orthogonalLoop=1;jettySize=auto;html=1;fontSize=12;" edge="1" parent="1" source="Kss5Wl3Iak-gHaVWlZTA-33" target="Kss5Wl3Iak-gHaVWlZTA-41">
          <mxGeometry relative="1" as="geometry" />
        </mxCell>
        <mxCell id="Kss5Wl3Iak-gHaVWlZTA-33" value="&lt;span style=&quot;font-size: 12px&quot;&gt;进入“创建站点”页面&lt;/span&gt;" style="whiteSpace=wrap;html=1;fontSize=16;" vertex="1" parent="1">
          <mxGeometry x="610" y="805" width="120" height="60" as="geometry" />
        </mxCell>
        <mxCell id="Kss5Wl3Iak-gHaVWlZTA-38" value="&lt;font style=&quot;font-size: 12px&quot;&gt;进入我的站点的“站点管理”首页&lt;/font&gt;" style="whiteSpace=wrap;html=1;fontSize=16;" vertex="1" parent="1">
          <mxGeometry x="319" y="970" width="189" height="55" as="geometry" />
        </mxCell>
        <mxCell id="Kss5Wl3Iak-gHaVWlZTA-44" value="" style="edgeStyle=orthogonalEdgeStyle;rounded=0;orthogonalLoop=1;jettySize=auto;html=1;fontSize=12;" edge="1" parent="1" source="Kss5Wl3Iak-gHaVWlZTA-41" target="Kss5Wl3Iak-gHaVWlZTA-43">
          <mxGeometry relative="1" as="geometry" />
        </mxCell>
        <mxCell id="Kss5Wl3Iak-gHaVWlZTA-45" value="点击返回" style="edgeLabel;html=1;align=center;verticalAlign=middle;resizable=0;points=[];fontSize=12;" vertex="1" connectable="0" parent="Kss5Wl3Iak-gHaVWlZTA-44">
          <mxGeometry x="-0.2632" relative="1" as="geometry">
            <mxPoint x="5" as="offset" />
          </mxGeometry>
        </mxCell>
        <mxCell id="Kss5Wl3Iak-gHaVWlZTA-41" value="&lt;font style=&quot;font-size: 12px&quot;&gt;操作&lt;/font&gt;" style="rhombus;whiteSpace=wrap;html=1;fontSize=16;" vertex="1" parent="1">
          <mxGeometry x="820" y="792.5" width="150" height="85" as="geometry" />
        </mxCell>
        <mxCell id="Kss5Wl3Iak-gHaVWlZTA-43" value="&lt;font style=&quot;font-size: 12px&quot;&gt;进入&lt;/font&gt;" style="whiteSpace=wrap;html=1;fontSize=16;" vertex="1" parent="1">
          <mxGeometry x="1065" y="805" width="120" height="60" as="geometry" />
        </mxCell>
      </root>
    </mxGraphModel>
  </diagram>
</mxfile>
